<svg width="50" height="50" xmlns="http://www.w3.org/2000/svg">
 <!-- Created with Method Draw - http://github.com/duopixel/Method-Draw/ -->
 <g>
  <title>background</title>
  <rect fill="#005fbf" id="canvas_background" height="52" width="52" y="-1" x="-1"/>
  <g display="none" overflow="visible" y="0" x="0" height="100%" width="100%" id="canvasGrid">
   <rect fill="url(#gridpattern)" stroke-width="0" y="0" x="0" height="100%" width="100%"/>
  </g>
 </g>
 <g>
  <title>Layer 1</title>
  <g stroke="null" id="svg_4">
   <g stroke="null" id="svg_5">
    <ellipse stroke="#fff" ry="5.719497" rx="19.14788" id="svg_3" cy="41.01373" cx="25.700298" fill="#e5e549"/>
    <ellipse stroke="#fff" ry="5.719497" rx="19.14788" id="svg_2" cy="32.663339" cx="26.116375" fill="#e5e549"/>
    <ellipse stroke="#fff" ry="5.719497" rx="19.14788" id="svg_1" cy="24.140823" cx="26.116375" fill="#e5e549"/>
   </g>
  </g>
  <path stroke="#f9001d" id="svg_7" d="m19.297643,10.277109c0.446404,0.298285 0.890354,0.685124 1.345864,1.122138c0.065699,-0.066888 0.127706,-0.13173 0.193426,-0.200032c0.659283,-0.68515 1.4064,-1.460908 2.2436,-2.211562c0.132885,-0.121954 0.272429,-0.224428 0.407778,-0.339447c-0.628276,-0.522038 -1.321259,-1.023173 -2.157235,-1.453923c-1.292709,-0.674688 -2.981631,-1.143765 -4.859053,-1.134027l-8.135992,0l0,3.292631l8.13747,0c1.131518,0.015331 1.848875,0.27459 2.824144,0.924221l-0.000003,0zm17.629645,2.694603l0,2.060994c-1.189593,-0.002099 -3.161021,-0.002099 -3.71965,-0.002099c-1.651483,-0.027168 -2.735287,-0.400068 -3.862876,-1.048964c-0.487756,-0.283663 -0.954824,-0.639162 -1.415508,-1.035042c-0.345746,0.343607 -0.694219,0.698392 -1.04883,1.067077c-0.43091,0.446107 -0.874855,0.904737 -1.337998,1.355682c-0.114931,0.110826 -0.243874,0.225111 -0.365203,0.337358c1.877199,1.396054 4.481056,2.599744 8.001871,2.614396l3.748195,0l0,2.060997l4.53521,-1.850488l4.542859,-1.854696l-4.542859,-1.852599l-4.53521,-1.852616l0,-0.000001zm-7.582528,-2.569161c1.127589,-0.650294 2.211393,-1.021783 3.862876,-1.048976c0.558631,0 2.530057,0 3.71965,-0.001387l0,2.061033l4.53521,-1.85123l4.542859,-1.852616l-4.542859,-1.854035l-4.53521,-1.851197l0,2.058915l-3.748195,0c-4.248495,0.018148 -7.177464,1.763417 -9.084408,3.491941c-1.942902,1.746707 -3.35201,3.588872 -4.797042,4.551404c-0.976744,0.647503 -1.692625,0.909554 -2.824144,0.924205l-8.13747,0l0,3.292604l8.13747,0c1.877187,0.009761 3.566093,-0.458607 4.858805,-1.13469c1.305769,-0.671196 2.286432,-1.508294 3.166204,-2.350963c1.730259,-1.6972 3.166193,-3.457788 4.846252,-4.435005l0.000001,-0.000001z" stroke-width="null" fill="#ff0f2f"/>
 </g>
</svg>